<?xml version="1.0" encoding="utf-8"?>
<!-- Generator: Adobe Illustrator 16.0.0, SVG Export Plug-In . SVG Version: 6.00 Build 0)  -->
<!DOCTYPE svg PUBLIC "-//W3C//DTD SVG 1.1//EN" "http://www.w3.org/Graphics/SVG/1.1/DTD/svg11.dtd">
<svg version="1.1" id="Ebene_1" xmlns="http://www.w3.org/2000/svg" xmlns:xlink="http://www.w3.org/1999/xlink" x="0px" y="0px"
	 width="1500px" height="410px" viewBox="0 0 1500 410" enable-background="new 0 0 1500 410" xml:space="preserve">
<g>
	<polygon fill="#2DC6D6" points="224.449,1.978 224.449,60.725 304.899,60.725 304.052,285.914 378.976,285.914 379.823,60.725 
		455.593,60.725 455.593,1.978 	"/>
	<path fill="#2DC6D6" d="M644.106,1.978l-0.847,158.358c0,34.481-1.705,45.979-7.242,56.19c-6.807,11.062-20.856,18.31-36.609,18.31
		c-19.151,0-34.904-9.798-40.866-25.122c-3.832-10.211-4.679-22.984-4.679-59.171l0.423-148.565h-74.924l-0.423,146.867v11.491
		c0,54.059,2.128,66.83,15.33,86.841c19.576,29.797,56.185,46.824,100.883,46.824c58.323,0,101.317-24.26,116.213-65.131
		c5.537-14.477,6.395-26.815,6.817-68.534l0.424-158.358H644.106L644.106,1.978z"/>
	<polygon fill="#2DC6D6" points="988.386,285.914 989.656,1.978 914.742,1.978 914.319,111.807 818.951,111.807 819.387,1.978 
		744.463,1.978 743.182,285.914 818.105,285.914 818.951,173.11 913.886,173.11 913.462,285.914 	"/>
	<polygon fill="#2DC6D6" points="1263.288,285.914 1264.569,1.978 1189.656,1.978 1189.223,111.807 1093.865,111.807 
		1094.288,1.978 1019.365,1.978 1018.095,285.914 1093.019,285.914 1093.865,173.11 1188.799,173.11 1188.375,285.914 	"/>
	<g>
		<path fill="#000099" d="M157.451,332.744h6.801l-5.102,24.566h29.837l5.101-24.566h6.886l-11.815,56.699h-6.887l5.526-26.777
			h-29.752l-5.525,26.777h-6.886L157.451,332.744z"/>
		<path fill="#000099" d="M239.987,386.894c-0.765,0.51-1.614,1.02-2.465,1.444c-3.146,1.784-4.59,2.296-6.375,2.296
			c-2.465,0-4.166-1.87-4.166-4.762l0.085-1.784c-4.165,4.506-7.99,6.546-12.496,6.546c-6.035,0-10.626-4.591-10.626-10.456
			c0-6.206,3.91-10.796,11.392-13.433c3.74-1.358,8.076-2.21,15.046-2.975l1.274-6.121c0.086-0.595,0.171-1.188,0.171-1.699
			c0-2.381-1.785-3.826-4.762-3.826c-3.654,0-7.819,1.7-13.771,5.525l-2.635-3.825c6.971-4.505,12.325-6.46,17.852-6.46
			c6.121,0,9.436,2.806,9.436,7.905c0,1.19-0.255,3.315-0.68,5.186l-3.826,18.361c-0.595,2.977-0.68,3.57-0.68,4.591
			c0,1.53,0.595,2.295,1.7,2.295c0.935,0,1.445-0.255,3.911-1.614L239.987,386.894z M229.531,367.767
			c-7.564,1.189-11.476,2.21-14.45,3.995c-3.23,1.955-4.931,4.591-4.931,7.649c0,3.655,2.721,6.376,6.375,6.376
			c2.806,0,6.205-1.614,8.5-4.079l2.04-2.125L229.531,367.767z"/>
		<path fill="#000099" d="M255.625,348.555h6.29l-1.785,7.396c7.564-6.206,12.241-8.586,17.086-8.586
			c4.25,0,7.311,3.061,7.311,7.142v1.444c5.611-5.61,11.307-8.586,16.492-8.586c4.76,0,7.565,2.976,7.565,8.245
			c0,1.36-0.255,3.485-0.596,5.271l-5.949,28.562h-6.546l6.035-29.157c0.341-1.614,0.511-3.061,0.511-4.165
			c0-1.955-1.615-3.399-3.911-3.399c-3.23,0-7.82,2.635-14.451,8.16l-5.865,28.562h-6.375l6.291-30.348
			c0.17-0.766,0.17-1.189,0.17-2.295c0-2.465-1.529-3.91-4.08-3.91c-2.976,0-7.65,2.635-14.45,7.99l-5.866,28.562h-6.375
			L255.625,348.555z"/>
		<path fill="#000099" d="M328.895,328.493h6.375l-5.609,26.692c4.166-5.271,8.841-7.82,14.28-7.82
			c7.142,0,12.156,5.95,12.156,14.536c0,9.605-5.354,18.871-13.686,23.887c-4.591,2.721-9.267,3.91-15.557,3.91
			c-1.955,0-4.166-0.085-10.626-0.255L328.895,328.493z M323.454,385.108l3.399,0.085c5.865,0,10.371-1.53,14.366-5.016
			c5.1-4.335,8.246-11.307,8.246-18.106c0-5.694-2.975-9.521-7.48-9.521c-4.166,0-7.396,2.04-13.431,8.33L323.454,385.108z"/>
		<path fill="#000099" d="M377.685,348.555l-5.78,27.798c-0.425,2.295-0.765,4.42-0.765,5.355c0,2.039,1.7,3.654,3.911,3.654
			c4.42,0,8.585-2.551,15.386-9.69l5.61-27.117h6.375l-8.501,40.889h-6.375l2.125-8.586c-6.036,6.716-11.222,9.776-17.001,9.776
			c-4.76,0-8.161-3.146-8.161-7.48c0-1.7,0.255-3.57,0.68-5.61l5.95-28.987L377.685,348.555L377.685,348.555z"/>
		<path fill="#000099" d="M416.869,348.555h6.374l-1.956,7.141c3.4-5.524,7.481-8.245,12.156-8.245c1.021,0,1.785,0.085,3.4,0.426
			l-1.7,6.205c-1.53-0.426-2.21-0.596-3.485-0.596c-4.166,0-6.375,1.53-11.051,7.735l-5.865,28.223h-6.375L416.869,348.555z"/>
		<path fill="#000099" d="M475.519,352.636h-8.076c1.87,1.87,2.805,4.25,2.805,7.564c0,8.16-6.885,14.536-15.726,14.536
			c-1.87,0-2.975-0.17-5.186-1.021l-4.421,2.551c-1.104,0.595-1.699,1.273-1.699,1.955c0,1.02,0.68,1.359,5.524,2.72l10.456,2.977
			c6.63,1.954,10.541,5.864,10.541,10.626c0,8.244-8.841,14.535-20.316,14.535c-9.861,0-16.831-4.761-16.831-11.391
			c0-5.101,4.505-9.521,12.836-12.581c-4.335-0.851-5.781-1.189-7.142-2.041c-1.699-0.935-2.55-1.955-2.55-3.229
			c0-1.36,1.445-2.892,3.74-4.166l6.886-3.655c-3.655-2.04-5.439-5.1-5.439-9.605c0-3.909,2.04-8.244,5.1-11.051
			c2.891-2.635,6.631-3.995,11.051-3.995c2.55,0,4.08,0.341,7.056,1.53l12.24-0.256L475.519,352.636z M449.252,386.553
			c-7.65,3.74-10.797,6.801-10.797,10.371c0,4.591,4.932,7.99,11.477,7.99c7.311,0,13.261-4.336,13.261-9.69
			c0-2.295-1.445-4.25-4.08-5.525c-0.68-0.34-0.68-0.34-5.186-1.7L449.252,386.553z M447.127,363.007
			c0,4.591,2.975,7.735,7.479,7.735c5.271,0,9.521-5.016,9.521-11.307c0-5.015-2.806-8.245-7.141-8.245
			C451.462,351.19,447.127,356.462,447.127,363.007z"/>
		<path fill="#000099" d="M552.613,369.637c-1.444,7.226-3.229,11.051-6.631,14.621c-4.08,4.165-10.031,6.376-17.426,6.376
			c-12.156,0-19.637-6.206-19.637-16.406c0-2.211,0.255-4.761,0.85-7.311l7.056-34.174h6.972l-7.312,35.192
			c-0.425,2.125-0.68,4.08-0.68,6.035c0,7.056,5.354,11.73,13.346,11.73c8.925,0,14.451-5.439,16.746-16.49l7.565-36.469h6.886
			L552.613,369.637z"/>
		<path fill="#000099" d="M571.992,348.555h6.46l-2.21,7.906c7.142-6.632,11.731-9.097,17.256-9.097c5.355,0,8.672,3.146,8.672,8.16
			c0,1.445-0.256,3.485-0.596,5.271l-5.949,28.646h-6.632l6.121-29.412c0.17-0.936,0.255-1.7,0.255-2.806
			c0-2.805-1.699-4.59-4.42-4.59c-3.484,0-8.755,3.06-15.131,8.926l-5.866,27.882h-6.46L571.992,348.555z"/>
		<path fill="#000099" d="M618.402,348.555h6.63l-8.416,40.889H609.9L618.402,348.555z M621.632,332.489h6.971l-1.53,7.227h-6.97
			L621.632,332.489z"/>
		<path fill="#000099" d="M633.53,349.065l6.46-1.53l6.8,33.662l18.702-33.662l5.61,2.38l-22.952,39.528h-5.695L633.53,349.065z"/>
		<path fill="#000099" d="M704.161,384.598c-4.761,2.891-5.101,3.061-6.971,3.91c-2.72,1.359-5.951,2.126-9.011,2.126
			c-9.521,0-15.642-6.801-15.642-17.428c0-5.779,1.785-11.306,5.186-16.235c4.505-6.29,10.201-9.605,16.662-9.605
			c8.416,0,12.836,5.355,12.836,15.642c0,1.274-0.085,2.976-0.255,5.78h-27.542c-0.425,2.806-0.511,3.91-0.511,5.101
			c0,6.886,4.25,11.562,10.456,11.562c3.74,0,6.121-0.936,12.496-4.931L704.161,384.598z M701.017,364.451
			c0.085-1.359,0.17-2.975,0.17-3.569c0-5.78-2.55-9.097-7.056-9.097c-3.655,0-7.312,2.125-10.031,5.78
			c-1.36,1.785-2.125,3.315-3.57,6.886H701.017L701.017,364.451z"/>
		<path fill="#000099" d="M722.86,348.555h6.375l-1.956,7.141c3.4-5.524,7.481-8.245,12.156-8.245c1.02,0,1.785,0.085,3.4,0.426
			l-1.7,6.205c-1.53-0.426-2.21-0.596-3.485-0.596c-4.166,0-6.375,1.53-11.051,7.735l-5.866,28.223h-6.375L722.86,348.555z"/>
		<path fill="#000099" d="M743.514,383.834c3.399,1.444,5.781,1.954,8.756,1.954c5.865,0,9.775-2.806,9.775-6.971
			c0-2.89-1.529-4.76-5.695-7.141l-2.975-1.615c-4.166-2.295-6.462-5.95-6.462-10.2c0-7.479,6.462-12.496,15.981-12.496
			c3.485,0,6.546,0.51,10.456,1.7l-1.785,4.505c-3.061-1.02-5.611-1.445-8.671-1.445c-5.696,0-9.438,2.892-9.438,7.396
			c0,2.466,1.361,4.506,4.081,6.036l4.165,2.38c4.506,2.551,6.887,6.035,6.887,10.116c0,7.649-6.46,12.581-16.406,12.581
			c-3.996,0-6.375-0.512-10.711-2.296L743.514,383.834z"/>
		<path fill="#000099" d="M786.098,348.555h6.631l-8.416,40.889h-6.716L786.098,348.555z M789.327,332.489h6.972l-1.531,7.227h-6.97
			L789.327,332.489z"/>
		<path fill="#000099" d="M802.075,348.555h8.756l3.315-16.065h6.376l-3.4,16.065h9.69l-0.936,4.676h-9.69l-4.506,21.592
			c-0.51,2.721-0.851,5.017-0.851,6.46c0,2.381,1.7,4.081,4.08,4.081c1.871,0,3.4-0.596,7.991-3.061l1.955,3.91
			c-7.226,3.994-8.415,4.421-11.814,4.421c-5.103,0-8.503-3.74-8.503-9.353c0-2.125,0.172-3.229,1.105-7.649l4.25-20.401h-8.755
			L802.075,348.555z"/>
		<path fill="#000099" d="M832.079,407.805c0.681-1.19,1.445-2.465,2.125-3.74c0.766-1.19,1.529-2.465,2.21-3.655l6.802-11.729
			l-8.841-39.528l6.461-1.53l6.715,33.322l18.617-33.322l5.608,2.381l-28.985,50.068c-0.852,1.445-1.701,2.806-2.552,3.995
			l-2.38,3.23c-0.341,0.595-0.765,1.104-1.104,1.784L832.079,407.805z"/>
		<path fill="#000099" d="M935.526,364.877c0,14.621-9.775,25.758-22.697,25.758c-9.944,0-16.064-6.887-16.064-18.191
			c0-13.687,10.37-25.077,22.781-25.077C929.321,347.365,935.526,354.166,935.526,364.877z M906.368,361.221
			c-1.87,3.484-2.976,8.076-2.976,11.985c0,7.735,3.74,12.496,9.861,12.496c5.016,0,9.096-2.636,12.154-7.989
			c2.211-3.826,3.57-8.927,3.57-13.433c0-7.396-3.825-12.07-9.86-12.07C913.765,352.211,909.515,355.186,906.368,361.221z"/>
		<path fill="#000099" d="M952.608,353.23h-8.331l0.937-4.676h8.33l1.274-6.29c2.125-10.116,5.865-13.941,13.687-13.941
			c0.256,0,1.359,0,2.296,0.085l1.784,0.085l-0.936,4.762c-1.02-0.256-1.445-0.341-2.38-0.341c-4.676,0-6.206,1.615-7.48,7.735
			l-1.699,7.905h9.689l-0.935,4.676h-9.691l-7.564,36.213h-6.545L952.608,353.23z"/>
		<path fill="#000099" d="M1020.691,338.27h-18.276l1.19-5.525h41.993l-1.19,5.525h-16.745l-10.627,51.174h-6.971L1020.691,338.27z"
			/>
		<path fill="#000099" d="M1070.427,384.598c-4.761,2.891-5.102,3.061-6.972,3.91c-2.72,1.359-5.949,2.126-9.011,2.126
			c-9.521,0-15.641-6.801-15.641-17.428c0-5.779,1.785-11.306,5.186-16.235c4.505-6.29,10.2-9.605,16.661-9.605
			c8.416,0,12.836,5.355,12.836,15.642c0,1.274-0.085,2.976-0.255,5.78h-27.542c-0.426,2.806-0.511,3.91-0.511,5.101
			c0,6.886,4.251,11.562,10.456,11.562c3.74,0,6.12-0.936,12.496-4.931L1070.427,384.598z M1067.281,364.451
			c0.085-1.359,0.17-2.975,0.17-3.569c0-5.78-2.551-9.097-7.056-9.097c-3.655,0-7.312,2.125-10.031,5.78
			c-1.359,1.785-2.125,3.315-3.569,6.886H1067.281L1067.281,364.451z"/>
		<path fill="#000099" d="M1112.332,385.108c-7.312,4.505-10.627,5.695-15.812,5.695c-9.096,0-15.217-6.716-15.217-16.661
			c0-14.962,12.496-26.777,28.223-26.777c2.465,0,3.825,0.17,6.716,0.851l-1.87,4.591c-1.869-0.34-2.806-0.425-4.251-0.425
			c-12.324,0-22.102,9.689-22.102,21.932c0,6.63,4.165,11.306,10.031,11.306c3.909,0,7.226-1.189,11.899-4.336L1112.332,385.108z"/>
		<path fill="#000099" d="M1132.739,328.493h6.461l-5.78,27.713c5.354-5.694,11.392-8.841,17.002-8.841
			c5.016,0,8.329,3.23,8.329,7.99c0,1.445-0.255,3.57-0.68,5.61l-5.95,28.478h-6.631l5.44-25.927
			c0.595-2.806,0.936-5.271,0.936-6.546c0-2.55-1.785-4.25-4.421-4.25c-3.655,0-8.841,3.06-15.131,8.926l-5.78,27.797h-6.461
			L1132.739,328.493z"/>
		<path fill="#000099" d="M1174.813,348.555h6.46l-2.21,7.906c7.141-6.632,11.73-9.097,17.257-9.097c5.355,0,8.67,3.146,8.67,8.16
			c0,1.445-0.255,3.485-0.595,5.271l-5.95,28.646h-6.631l6.121-29.412c0.17-0.936,0.255-1.7,0.255-2.806
			c0-2.805-1.7-4.59-4.421-4.59c-3.485,0-8.756,3.06-15.131,8.926l-5.865,27.882h-6.461L1174.813,348.555z"/>
		<path fill="#000099" d="M1252.334,364.877c0,14.621-9.774,25.758-22.696,25.758c-9.945,0-16.065-6.887-16.065-18.191
			c0-13.687,10.37-25.077,22.781-25.077C1246.13,347.365,1252.334,354.166,1252.334,364.877z M1223.178,361.221
			c-1.87,3.484-2.977,8.076-2.977,11.985c0,7.735,3.74,12.496,9.861,12.496c5.016,0,9.096-2.636,12.155-7.989
			c2.211-3.826,3.569-8.927,3.569-13.433c0-7.396-3.824-12.07-9.859-12.07C1230.573,352.211,1226.323,355.186,1223.178,361.221z"/>
		<path fill="#000099" d="M1259.218,389.443l12.666-60.95h6.546l-12.666,60.95H1259.218z"/>
		<path fill="#000099" d="M1319.994,364.877c0,14.621-9.774,25.758-22.696,25.758c-9.945,0-16.065-6.887-16.065-18.191
			c0-13.687,10.37-25.077,22.781-25.077C1313.789,347.365,1319.994,354.166,1319.994,364.877z M1290.838,361.221
			c-1.87,3.484-2.977,8.076-2.977,11.985c0,7.735,3.74,12.496,9.861,12.496c5.016,0,9.096-2.636,12.155-7.989
			c2.211-3.826,3.569-8.927,3.569-13.433c0-7.396-3.824-12.07-9.859-12.07C1298.233,352.211,1293.983,355.186,1290.838,361.221z"/>
		<path fill="#000099" d="M1365.726,352.636h-8.076c1.87,1.87,2.806,4.25,2.806,7.564c0,8.16-6.886,14.536-15.727,14.536
			c-1.87,0-2.977-0.17-5.187-1.021l-4.42,2.551c-1.104,0.595-1.7,1.273-1.7,1.955c0,1.02,0.681,1.359,5.525,2.72l10.455,2.977
			c6.631,1.954,10.541,5.864,10.541,10.626c0,8.244-8.841,14.535-20.316,14.535c-9.859,0-16.831-4.761-16.831-11.391
			c0-5.101,4.505-9.521,12.837-12.581c-4.336-0.851-5.78-1.189-7.142-2.041c-1.7-0.935-2.55-1.955-2.55-3.229
			c0-1.36,1.443-2.892,3.74-4.166l6.885-3.655c-3.655-2.04-5.44-5.1-5.44-9.605c0-3.909,2.041-8.244,5.102-11.051
			c2.891-2.635,6.631-3.995,11.051-3.995c2.551,0,4.081,0.341,7.056,1.53l12.241-0.256L1365.726,352.636z M1339.457,386.553
			c-7.649,3.74-10.796,6.801-10.796,10.371c0,4.591,4.932,7.99,11.477,7.99c7.311,0,13.262-4.336,13.262-9.69
			c0-2.295-1.445-4.25-4.081-5.525c-0.68-0.34-0.68-0.34-5.186-1.7L1339.457,386.553z M1337.332,363.007
			c0,4.591,2.976,7.735,7.48,7.735c5.271,0,9.521-5.016,9.521-11.307c0-5.015-2.806-8.245-7.142-8.245
			C1341.668,351.19,1337.332,356.462,1337.332,363.007z"/>
		<path fill="#000099" d="M1369.291,407.805c0.681-1.19,1.444-2.465,2.125-3.74c0.766-1.19,1.529-2.465,2.211-3.655l6.8-11.729
			l-8.841-39.528l6.461-1.53l6.716,33.322l18.616-33.322l5.609,2.381l-28.986,50.068c-0.851,1.445-1.7,2.806-2.551,3.995
			l-2.381,3.23c-0.34,0.595-0.765,1.104-1.104,1.784L1369.291,407.805z"/>
	</g>
</g>
</svg>
